<?xml version="1.0" encoding="utf-8"?>
<!-- Generator: Adobe Illustrator 26.0.1, SVG Export Plug-In . SVG Version: 6.00 Build 0)  -->
<svg version="1.1" id="Capa_1" xmlns="http://www.w3.org/2000/svg" xmlns:xlink="http://www.w3.org/1999/xlink" x="0px" y="0px"
	 viewBox="0 0 60 60" style="enable-background:new 0 0 60 60;" xml:space="preserve">
<style type="text/css">
	.st0{fill:#F0C419;}
	.st1{fill:#EDE21B;}
	.st2{fill:#F29C1F;}
	.st3{fill:#546A79;}
</style>
<g>
	<path class="st0" d="M30,3c-0.6,0-1,0.4-1,1v6c0,0.6,0.4,1,1,1s1-0.4,1-1V4C31,3.4,30.6,3,30,3z"/>
	<path class="st0" d="M59,32h-6c-0.6,0-1,0.4-1,1s0.4,1,1,1h6c0.6,0,1-0.4,1-1S59.6,32,59,32z"/>
	<path class="st0" d="M7,32H1c-0.6,0-1,0.4-1,1s0.4,1,1,1h6c0.6,0,1-0.4,1-1S7.6,32,7,32z"/>
	<path class="st0" d="M52.7,10.3c-0.4-0.4-1-0.4-1.4,0L45.6,16c-0.4,0.4-0.4,1,0,1.4c0.2,0.2,0.5,0.3,0.7,0.3s0.5-0.1,0.7-0.3
		l5.7-5.7C53.1,11.3,53.1,10.7,52.7,10.3z"/>
	<path class="st0" d="M8.7,10.3c-0.4-0.4-1-0.4-1.4,0s-0.4,1,0,1.4l5.7,5.7c0.2,0.2,0.5,0.3,0.7,0.3s0.5-0.1,0.7-0.3
		c0.4-0.4,0.4-1,0-1.4L8.7,10.3z"/>
	<path class="st0" d="M54.9,22.5c-0.2-0.5-0.8-0.7-1.3-0.5l-2.8,1.2c-0.5,0.2-0.7,0.8-0.5,1.3c0.2,0.4,0.5,0.6,0.9,0.6
		c0.1,0,0.3,0,0.4-0.1l2.8-1.2C54.8,23.5,55.1,23,54.9,22.5z"/>
	<path class="st0" d="M9,23.5l-2.8-1.1c-0.5-0.2-1.1,0-1.3,0.6c-0.2,0.5,0,1.1,0.6,1.3l2.8,1.1c0.1,0,0.2,0.1,0.4,0.1
		c0.4,0,0.8-0.2,0.9-0.6C9.8,24.2,9.6,23.7,9,23.5z"/>
	<path class="st0" d="M20.8,8.7c-0.2-0.5-0.8-0.7-1.3-0.5c-0.5,0.2-0.7,0.8-0.5,1.3l1.2,2.8c0.2,0.4,0.5,0.6,0.9,0.6
		c0.1,0,0.3,0,0.4-0.1c0.5-0.2,0.7-0.8,0.5-1.3L20.8,8.7z"/>
	<path class="st0" d="M40.1,8c-0.5-0.2-1.1,0-1.3,0.6l-1.1,2.8c-0.2,0.5,0,1.1,0.6,1.3c0.1,0,0.2,0.1,0.4,0.1c0.4,0,0.8-0.2,0.9-0.6
		l1.1-2.8C40.9,8.8,40.6,8.2,40.1,8z"/>
</g>
<path class="st0" d="M48.3,41c1.1-2.5,1.7-5.2,1.7-8c0-11-9-20-20-20s-20,9-20,20c0,2.8,0.6,5.5,1.7,8H48.3z"/>
<path class="st1" d="M42.7,41c1.5-2.3,2.3-5.1,2.3-8c0-8.3-6.7-15-15-15s-15,6.7-15,15c0,2.9,0.9,5.7,2.3,8H42.7z"/>
<g>
	<path class="st2" d="M59,40H1c-0.6,0-1,0.4-1,1s0.4,1,1,1h58c0.6,0,1-0.4,1-1S59.6,40,59,40z"/>
	<path class="st2" d="M54,45H6c-0.6,0-1,0.4-1,1s0.4,1,1,1h48c0.6,0,1-0.4,1-1S54.6,45,54,45z"/>
	<path class="st2" d="M49,50H11c-0.6,0-1,0.4-1,1s0.4,1,1,1h38c0.6,0,1-0.4,1-1S49.6,50,49,50z"/>
	<path class="st2" d="M45,55H15c-0.6,0-1,0.4-1,1s0.4,1,1,1h30c0.6,0,1-0.4,1-1S45.6,55,45,55z"/>
</g>
<polygon class="st3" points="23.7,31.1 29,25.8 29,37.4 31,37.4 31,25.8 36.3,31.1 37.7,29.7 30,22 22.3,29.7 "/>
</svg>
